<svg width="42" height="42" viewBox="0 0 42 42" fill="none" xmlns="http://www.w3.org/2000/svg">
<g clip-path="url(#clip0)">
<path d="M33.6292 10.3055C33.4487 10.0798 33.1328 9.98959 32.8169 10.125L31.6437 10.5762L28.0337 2.58911C27.8983 2.31836 27.6727 2.18298 27.4019 2.18298H15.6694C15.4438 2.18298 15.2633 2.27323 15.1279 2.45373L8.49458 10.3957C8.35921 10.5311 8.31408 10.7567 8.35921 10.9372C8.40433 11.1177 8.49458 11.2982 8.62996 11.4336L15.2633 16.3522C15.5792 16.5778 16.0304 16.5327 16.2561 16.2168L20.5881 10.3506L22.6638 14.0508L21.3552 14.7277C21.0844 14.8631 20.9491 15.1338 20.9942 15.4046C21.0393 15.6753 21.2198 15.9461 21.5357 15.9912L28.9362 17.7962C28.9813 17.7962 29.0264 17.7962 29.1167 17.7962C29.3423 17.7962 29.5679 17.6608 29.7033 17.4803L33.6743 11.1177C33.8548 10.847 33.8097 10.5311 33.6292 10.3055ZM15.5341 14.7728L10.074 10.7116L16.0304 3.58186H16.9781L19.9112 9.04197L15.5341 14.7728ZM28.7106 16.3522L23.7017 15.1338L23.9724 14.9985C24.1529 14.9082 24.2883 14.7728 24.3334 14.5923C24.3786 14.4118 24.3786 14.2313 24.2883 14.0508L21.3101 8.72609L18.5123 3.53673H26.9056L30.6058 11.7495C30.7412 12.0202 31.0571 12.2007 31.3278 12.1556L28.7106 16.3522Z" fill="#ABB8A2"/>
<path d="M18.0161 28.5359L10.7059 28.22L12.6011 24.4295L13.8646 25.1515C14.1354 25.2869 14.4513 25.2869 14.6769 25.0612C14.9025 24.8807 14.9927 24.5649 14.8574 24.2941L12.195 17.1644C12.1048 16.8936 11.834 16.7131 11.5181 16.7131L3.98227 16.9839C3.6664 16.9839 3.44077 17.2095 3.35052 17.4803C3.26027 17.751 3.39565 18.0669 3.62127 18.2474L4.65915 18.9694L0.101531 26.4601C-0.0338437 26.6857 -0.0338437 27.0016 0.101531 27.2272L5.15552 34.6728L7.09589 37.606C7.23127 37.7865 7.45689 37.9218 7.68251 37.9218H17.971C18.3771 37.9218 18.693 37.606 18.693 37.1998V29.2579C18.693 28.8969 18.3771 28.581 18.0161 28.5359ZM6.23852 33.7704L1.54553 26.8211L6.28364 19.1499C6.46414 18.8791 6.41902 18.5633 6.19339 18.3376L11.112 18.112L12.917 22.9855L12.6463 22.8501C12.4658 22.7599 12.2853 22.7147 12.1048 22.805C11.9243 22.8501 11.7889 22.9855 11.6986 23.166L8.99114 28.581L6.23852 33.7704ZM17.249 36.523H8.04351L7.14102 35.1241L10.029 29.6189L17.249 29.9347V36.523Z" fill="#ABB8A2"/>
<path d="M41.9323 26.1893L37.4198 16.8936C37.3296 16.7131 37.1942 16.5777 37.0137 16.5326C36.8332 16.4875 36.6527 16.4875 36.4722 16.6229L29.2522 20.639C28.9363 20.8195 28.8009 21.2707 28.9814 21.5866L32.5012 27.9492L28.2594 28.3102L28.2143 26.8662C28.2143 26.5503 27.9887 26.3247 27.7179 26.2345C27.4472 26.1442 27.1313 26.2345 26.9508 26.4601L22.2578 32.4617C22.0773 32.6873 22.0773 33.0483 22.2127 33.274L26.4093 39.5012C26.5447 39.6817 26.7703 39.8171 26.996 39.8171C27.0411 39.8171 27.1313 39.8171 27.1765 39.7719C27.4472 39.6817 27.6728 39.4109 27.6728 39.1402L27.7179 37.8767H36.4722C36.7429 37.8767 37.0137 37.6962 37.1039 37.4706L41.9323 26.776C42.0226 26.5955 42.0226 26.3698 41.9323 26.1893ZM36.1112 36.523H27.1313C26.8155 36.523 26.5447 36.7486 26.4545 37.0193L23.7018 32.913L26.9057 28.8066V29.1225C26.9057 29.303 26.996 29.4835 27.1313 29.6188C27.2667 29.7542 27.4472 29.7993 27.6728 29.7993L33.7196 29.2578L39.5858 28.8517L36.1112 36.523ZM40.1724 27.3626L33.9903 27.8138L30.5157 21.4963L36.4722 18.1571L40.5786 26.5052L40.1724 27.3626Z" fill="#ABB8A2"/>
</g>
<defs>
<clipPath id="clip0">
<rect width="42" height="42" fill="white"/>
</clipPath>
</defs>
</svg>
