<svg width="42" height="42" viewBox="0 0 42 42" fill="none" xmlns="http://www.w3.org/2000/svg">
<path d="M20.9411 18.8715C19.6795 18.8715 18.6533 19.8978 18.6533 21.1592C18.6533 22.4207 19.6797 23.447 20.9411 23.447C22.2027 23.447 23.229 22.4206 23.229 21.1592C23.229 19.8978 22.2027 18.8715 20.9411 18.8715ZM20.9411 22.2009C20.3667 22.2009 19.8995 21.7335 19.8995 21.1592C19.8995 20.5849 20.3668 20.1176 20.9411 20.1176C21.5154 20.1176 21.9828 20.5849 21.9828 21.1592C21.9828 21.7335 21.5155 22.2009 20.9411 22.2009Z" fill="#ABB8A2"/>
<path d="M20.9411 15.7992C17.9856 15.7992 15.5811 18.2037 15.5811 21.1593C15.5811 24.1149 17.9856 26.5194 20.9411 26.5194C23.8967 26.5194 26.3012 24.1149 26.3012 21.1593C26.3012 18.2037 23.8967 15.7992 20.9411 15.7992ZM20.9411 25.2731C18.6726 25.2731 16.8272 23.4277 16.8272 21.1592C16.8272 18.8907 18.6727 17.0452 20.9411 17.0452C23.2095 17.0452 25.0551 18.8908 25.0551 21.1592C25.0551 23.4276 23.2095 25.2731 20.9411 25.2731Z" fill="#ABB8A2"/>
<path d="M20.9412 12.7766C16.3191 12.7766 12.5586 16.5371 12.5586 21.1592C12.5586 25.7814 16.3191 29.5417 20.9412 29.5417C25.5633 29.5417 29.3238 25.7813 29.3238 21.1592C29.3238 16.537 25.5634 12.7766 20.9412 12.7766ZM20.9412 28.2956C17.0062 28.2956 13.8048 25.0943 13.8048 21.1593C13.8048 17.2243 17.0062 14.0229 20.9412 14.0229C24.8762 14.0229 28.0776 17.2243 28.0776 21.1593C28.0776 25.0943 24.8762 28.2956 20.9412 28.2956Z" fill="#ABB8A2"/>
<path d="M20.941 9.77771C14.6653 9.77771 9.55957 14.8834 9.55957 21.1591C9.55957 27.4349 14.6653 32.5406 20.941 32.5406C27.2168 32.5406 32.3224 27.4349 32.3224 21.1591C32.3224 14.8834 27.2168 9.77771 20.941 9.77771ZM20.941 31.2944C15.3524 31.2944 10.8057 26.7478 10.8057 21.1591C10.8057 15.5705 15.3524 11.0238 20.941 11.0238C26.5297 11.0238 31.0763 15.5705 31.0763 21.1591C31.0763 26.7478 26.5296 31.2944 20.941 31.2944Z" fill="#ABB8A2"/>
<path d="M20.941 6.73047C12.985 6.73047 6.51221 13.2031 6.51221 21.1594C6.51221 29.1156 12.9849 35.5882 20.941 35.5882C28.8971 35.5882 35.3699 29.1155 35.3699 21.1593C35.3699 13.2031 28.8971 6.73047 20.941 6.73047ZM20.941 34.3419C13.6721 34.3419 7.75843 28.4282 7.75843 21.1593C7.75843 13.8903 13.6721 7.97669 20.941 7.97669C28.21 7.97669 34.1237 13.8904 34.1237 21.1594C34.1237 28.4283 28.21 34.3419 20.941 34.3419Z" fill="#ABB8A2"/>
<path d="M20.941 4.07275C11.5195 4.07275 3.85449 11.7378 3.85449 21.1594C3.85449 30.5808 11.5195 38.2459 20.941 38.2459C30.3626 38.2459 38.0276 30.5809 38.0276 21.1594C38.0276 11.7378 30.3626 4.07275 20.941 4.07275ZM20.941 36.9997C12.2066 36.9997 5.10071 29.8937 5.10071 21.1594C5.10071 12.425 12.2067 5.31889 20.941 5.31889C29.6754 5.31889 36.7813 12.4249 36.7813 21.1593C36.7813 29.8937 29.6755 36.9997 20.941 36.9997Z" fill="#ABB8A2"/>
<path d="M41.5151 22.0521C41.3672 21.738 41.1833 21.3472 41.1833 21.1594C41.1833 19.9697 41.0792 18.7771 40.8739 17.6149C40.8214 17.3175 40.8798 17.0629 40.9474 16.7682C41.0403 16.3632 41.156 15.8592 40.9547 15.2401C40.8634 14.9595 40.7717 14.6599 40.6746 14.3425C40.3247 13.1992 39.9281 11.9036 39.3689 10.933C39.0886 10.4465 38.5525 10.0881 38.034 9.74154C37.686 9.5089 37.3261 9.26838 37.1757 9.06675C37.02 8.85814 36.8417 8.33561 36.6842 7.87459C36.436 7.14779 36.2017 6.46127 35.8218 6.06055C35.1971 5.40176 34.5221 4.7793 33.8158 4.21042C33.1767 3.69575 32.4729 3.66056 31.852 3.62939C31.3965 3.60659 31.0032 3.58682 30.6565 3.39683C29.6583 2.84968 28.6072 2.38465 27.5326 2.01469C27.226 1.9092 26.8174 1.61938 26.4221 1.33916C25.8273 0.917438 25.2122 0.481277 24.5717 0.359051C23.3228 0.120832 22.0393 0 20.7567 0C19.7299 0 18.8454 0.413848 17.9901 0.814078C17.4494 1.06706 16.9387 1.30602 16.428 1.42218C16.0542 1.50724 15.5757 1.48116 15.0693 1.45359C14.3493 1.41438 13.6049 1.37361 12.9481 1.63923C12.0121 2.01764 11.0963 2.47103 10.2259 2.98684C9.66085 3.32169 9.3137 3.88639 8.97794 4.43256C8.74571 4.81023 8.52644 5.1669 8.27977 5.36493C7.93098 5.6449 7.45823 5.83866 6.95768 6.04373C6.23236 6.34102 5.48218 6.64839 4.94135 7.2783C4.22809 8.10903 3.57807 9.0035 3.0091 9.93677C2.53816 10.7095 2.3791 11.7134 2.22538 12.6842C2.1262 13.3102 2.03252 13.9014 1.86559 14.3706C1.54583 15.2689 1.28801 16.1989 1.09917 17.1344C0.955943 17.8442 0.849877 18.5707 0.783842 19.2938C0.727486 19.9099 0.699021 20.5375 0.699021 21.1593C0.699021 21.6142 0.548084 22.1584 0.388123 22.7346C0.162701 23.5472 -0.0703497 24.3875 0.0737792 25.1722C0.210279 25.9158 0.390748 26.6594 0.610182 27.3823C0.827892 28.0994 1.08867 28.812 1.38546 29.5002C1.63943 30.0893 2.18928 30.4667 2.72109 30.8316C3.06718 31.0692 3.425 31.3147 3.56208 31.5436C3.87954 32.0737 4.22571 32.5959 4.59116 33.0955C5.00419 33.6605 5.45183 34.2103 5.92154 34.73C6.11358 34.9424 6.33408 35.3468 6.54727 35.7378C6.86301 36.317 7.18958 36.9159 7.6081 37.2784C8.31168 37.8881 9.06375 38.454 9.84329 38.9605C10.3634 39.2985 10.9092 39.2963 11.3473 39.2943C11.6604 39.2936 11.9306 39.2919 12.1542 39.3999C12.511 39.572 12.9136 39.9298 13.3398 40.3086C13.96 40.8598 14.6014 41.4297 15.3354 41.6406C16.0054 41.8332 16.5958 41.8688 17.1666 41.9031C17.473 41.9216 17.79 41.9406 18.1273 41.9838C18.2137 41.9949 18.3001 41.9999 18.3864 41.9999C18.8845 41.9998 19.3816 41.8312 19.8647 41.6672C20.2498 41.5365 20.648 41.4013 20.9411 41.4013C21.4331 41.4013 21.9709 41.5359 22.5404 41.6785C23.3584 41.8833 24.2043 42.0953 25.0402 41.9298C25.9112 41.7578 26.7611 41.4163 27.5831 41.086C27.8407 40.9826 28.0839 40.8848 28.3238 40.7939C28.8876 40.5803 29.3216 40.1198 29.7046 39.7136C29.9798 39.4217 30.2397 39.146 30.4901 39.0118C31.4312 38.5075 32.34 37.9231 33.1914 37.275C33.416 37.104 33.8268 36.9836 34.2242 36.8673C34.8222 36.6922 35.4406 36.511 35.8775 36.0784C36.6717 35.2916 37.4056 34.4338 38.0587 33.5285C38.4015 33.0534 38.4486 32.44 38.49 31.8989C38.5179 31.5347 38.5468 31.1582 38.66 30.9536C39.1548 30.0605 39.5845 29.1227 39.9374 28.1662C40.0372 27.8958 40.3073 27.6301 40.5932 27.3486C41.0076 26.9407 41.4772 26.4784 41.6207 25.8083C41.7735 25.0949 41.8888 24.3642 41.9634 23.6363C42.0165 23.1175 41.7616 22.5758 41.5151 22.0521ZM40.7237 23.5094C40.6537 24.1925 40.5455 24.8782 40.4022 25.5474C40.3369 25.8523 40.0369 26.1477 39.7191 26.4604C39.3654 26.8085 38.9645 27.203 38.7684 27.7348C38.4373 28.6321 38.0341 29.5119 37.5699 30.3498C37.325 30.7921 37.2855 31.3063 37.2474 31.8037C37.217 32.1994 37.1856 32.6086 37.048 32.7994C36.4349 33.6492 35.7459 34.4545 35.0003 35.1931C34.7875 35.4039 34.3231 35.54 33.8738 35.6715C33.3677 35.8197 32.8444 35.9729 32.4364 36.2835C31.6373 36.8918 30.7844 37.4403 29.9013 37.9135C29.4721 38.1435 29.1293 38.5072 28.7978 38.8588C28.4928 39.1822 28.1775 39.5166 27.882 39.6286C27.6306 39.7239 27.3703 39.8285 27.1184 39.9297C26.3499 40.2385 25.5551 40.5578 24.7987 40.7072C24.2362 40.8178 23.5595 40.6489 22.8429 40.4696C22.2252 40.315 21.5866 40.1552 20.9411 40.1552C20.4422 40.1552 19.945 40.3239 19.4642 40.4872C19.0315 40.6341 18.5843 40.7862 18.2855 40.7477C17.9066 40.6992 17.5685 40.6788 17.2415 40.6591C16.6921 40.6261 16.2174 40.5975 15.6794 40.4429C15.2176 40.3102 14.6838 39.8358 14.1676 39.377C13.6963 38.9582 13.209 38.5251 12.6957 38.2774C12.2539 38.0642 11.812 38.0478 11.443 38.0478C11.4087 38.0478 11.3751 38.048 11.3421 38.0481C10.9624 38.0488 10.7202 38.0441 10.5222 37.9155C9.79046 37.44 9.0845 36.9088 8.42407 36.3366C8.17592 36.1215 7.89193 35.6007 7.64141 35.1411C7.38202 34.6654 7.13708 34.2161 6.84595 33.8941C6.40495 33.4062 5.98479 32.8901 5.59702 32.3598C5.25405 31.8907 4.92904 31.4007 4.63127 30.9032C4.35442 30.4409 3.88257 30.117 3.42623 29.8039C3.04028 29.539 2.64119 29.2652 2.52971 29.0066C2.25138 28.361 2.00676 27.6926 1.80259 27.0199C1.59669 26.342 1.42746 25.6444 1.29941 24.9469C1.20712 24.4441 1.40129 23.7443 1.5889 23.0675C1.76403 22.4363 1.94516 21.7836 1.94516 21.1591C1.94516 20.5749 1.97198 19.9855 2.02481 19.407C2.08691 18.7284 2.18641 18.0466 2.32078 17.3806C2.4978 16.503 2.73963 15.6309 3.03954 14.7883C3.24527 14.2104 3.3524 13.5336 3.45609 12.8792C3.59095 12.0279 3.73032 11.1476 4.07313 10.5853C4.60707 9.7093 5.21722 8.86979 5.88676 8.09009C6.23219 7.68772 6.81404 7.44934 7.4301 7.19685C7.9907 6.96708 8.57025 6.72952 9.05965 6.33667C9.47481 6.00354 9.76183 5.53662 10.0394 5.0852C10.2959 4.66807 10.5611 4.23675 10.8612 4.05882C11.6778 3.57492 12.5371 3.14943 13.4151 2.79448C13.8143 2.63312 14.4178 2.66585 15.0013 2.69784C15.5711 2.72893 16.1606 2.76125 16.7046 2.63722C17.3455 2.49129 17.9417 2.21246 18.5181 1.94275C19.284 1.58452 20.0072 1.24614 20.7569 1.24614C21.9613 1.24614 23.1662 1.3595 24.3385 1.58329C24.7128 1.65465 25.2382 2.02716 25.7017 2.35586C26.1687 2.68693 26.6516 3.02933 27.1273 3.19315C28.1354 3.54014 29.1213 3.97646 30.0578 4.48973C30.6553 4.81712 31.258 4.84739 31.7899 4.87405C32.3606 4.9026 32.7261 4.93279 33.0344 5.18109C33.6976 5.71512 34.3313 6.29951 34.9176 6.91794C35.1105 7.12121 35.3385 7.78936 35.505 8.2772C35.7104 8.87832 35.9041 9.44614 36.1769 9.81184C36.4555 10.1852 36.9059 10.4864 37.3415 10.7775C37.7223 11.0321 38.1541 11.3206 38.2892 11.555C38.7779 12.4032 39.1526 13.6271 39.483 14.707C39.5817 15.0297 39.675 15.3344 39.7697 15.6253C39.8643 15.9164 39.8092 16.1567 39.7329 16.4892C39.6516 16.8437 39.5502 17.285 39.6467 17.8314C39.8394 18.9223 39.9372 20.0419 39.9372 21.1591C39.9372 21.6255 40.1661 22.112 40.3876 22.5826C40.5286 22.8823 40.7416 23.3349 40.7237 23.5094Z" fill="#ABB8A2"/>
</svg>
