<svg width="43" height="43" viewBox="0 0 43 43" fill="none" xmlns="http://www.w3.org/2000/svg">
<path d="M38.3996 2.73861C38.403 2.29879 38.0493 1.93942 37.6095 1.93593C37.4949 1.93504 37.3813 1.95893 37.2766 2.00592C32.2608 4.34037 26.3566 3.64043 22.0255 0.19808C21.7249 -0.0660268 21.2749 -0.0660268 20.9743 0.19808C16.625 3.59643 10.7464 4.29329 5.72314 2.00592C5.32195 1.82553 4.85058 2.00462 4.67019 2.40571C4.62321 2.51034 4.59931 2.62383 4.60021 2.73861C4.60021 2.90585 4.65596 19.3277 4.60021 24.7671C4.56835 27.674 11.3537 37.1114 21.0937 42.8933C21.3401 43.0355 21.6437 43.0355 21.8901 42.8933C31.6461 37.1114 38.4314 27.674 38.3996 24.7671C38.3438 19.3277 38.3996 2.90585 38.3996 2.73861ZM36.8068 24.7751C36.8068 26.5272 31.2319 35.3274 21.4999 41.2766C11.736 35.3354 6.17709 26.5351 6.19302 24.783C6.2408 20.1878 6.20894 7.81966 6.19302 3.91728C11.3305 5.79719 17.0661 5.00338 21.4999 1.79885C25.9337 5.00338 31.6693 5.79719 36.8068 3.91728C36.8068 7.81169 36.7669 20.1878 36.8068 24.7751Z" fill="#ABB8A2"/>
<path d="M34.2428 7.58075C34.2463 7.14094 33.8926 6.78156 33.4528 6.77807C33.3381 6.77718 33.2245 6.80107 33.1199 6.84806C29.4793 8.55963 25.1838 8.06626 22.026 5.57381C21.7254 5.30971 21.2754 5.30971 20.9748 5.57381C17.8162 8.03739 13.55 8.54071 9.90475 6.87991C9.50356 6.69953 9.03219 6.87862 8.85181 7.27971C8.80482 7.38434 8.78093 7.49792 8.78182 7.61261C8.78182 7.73207 8.82164 19.8931 8.78182 23.9229C8.75793 26.1131 13.8231 33.201 21.0942 37.5176C21.3406 37.6598 21.6442 37.6598 21.8906 37.5176C29.1777 33.201 34.2428 26.1131 34.2428 23.8911C34.203 19.8613 34.2428 7.70817 34.2428 7.58075ZM32.65 23.8911C32.65 25.014 28.668 31.4888 21.5004 35.8371C14.3885 31.4649 10.3507 24.9901 10.3507 23.8911C10.4065 20.6418 10.3507 11.945 10.3507 8.75943C14.1046 10.0797 18.2664 9.48515 21.5004 7.16662C24.7344 9.48515 28.8962 10.0797 32.65 8.75943V23.8911Z" fill="#ABB8A2"/>
</svg>
