<svg width="140" height="111" viewBox="0 0 140 111" fill="none" xmlns="http://www.w3.org/2000/svg">
<path d="M31.768 -1.93119e-05C40.84 -1.93119e-05 48.292 2.91598 54.124 8.74798C59.956 14.364 62.872 21.816 62.872 31.104C62.872 35.424 62.332 39.744 61.252 44.064C60.172 48.384 57.904 54.864 54.448 63.504L35.656 110.16H3.58L17.512 58.968C12.112 56.592 7.9 53.028 4.876 48.276C1.852 43.524 0.34 37.8 0.34 31.104C0.34 21.816 3.256 14.364 9.088 8.74798C15.136 2.91598 22.696 -1.93119e-05 31.768 -1.93119e-05ZM108.232 -1.93119e-05C117.304 -1.93119e-05 124.756 2.91598 130.588 8.74798C136.42 14.364 139.336 21.816 139.336 31.104C139.336 35.424 138.796 39.744 137.716 44.064C136.636 48.384 134.368 54.864 130.912 63.504L112.12 110.16H80.044L93.976 58.968C88.576 56.592 84.364 53.028 81.34 48.276C78.316 43.524 76.804 37.8 76.804 31.104C76.804 21.816 79.72 14.364 85.552 8.74798C91.6 2.91598 99.16 -1.93119e-05 108.232 -1.93119e-05Z" fill="#D5B959"/>
</svg>
