<svg width="28" height="28" viewBox="0 0 28 28" fill="none" xmlns="http://www.w3.org/2000/svg">
<path d="M11.3038 17.7508C11.1545 17.7508 11.0052 17.6936 10.8908 17.5804L1.40467 8.09309C0.494668 7.18309 0.494668 5.70259 1.40467 4.79259C2.3135 3.88375 3.79517 3.88375 4.704 4.79259L13.3665 13.4551C13.594 13.6826 13.594 14.0524 13.3665 14.2799C13.139 14.5074 12.7692 14.5074 12.5417 14.2799L3.87917 5.61625C3.423 5.16242 2.68333 5.16242 2.2295 5.61625C2.01017 5.83675 1.88767 6.12959 1.88767 6.44109C1.88767 6.75375 2.009 7.04659 2.2295 7.26709L11.7168 16.7544C11.9443 16.9819 11.9443 17.3518 11.7168 17.5793C11.6025 17.6936 11.4532 17.7508 11.3038 17.7508Z" fill="#5D686F"/>
<path d="M15.429 11.9758C15.2797 11.9758 15.1304 11.9186 15.016 11.8055L11.3037 8.09313C10.8475 7.63696 10.1102 7.63696 9.65401 8.09313C9.43351 8.31246 9.31218 8.60529 9.31218 8.91796C9.31218 9.22946 9.43351 9.52229 9.65401 9.74279C9.88151 9.97029 9.88151 10.3401 9.65401 10.5676C9.42651 10.7951 9.05668 10.7951 8.82918 10.5676C8.38817 10.1266 8.14551 9.54096 8.14551 8.91796C8.14551 8.29379 8.38817 7.70813 8.82918 7.26829C9.73801 6.35946 11.2197 6.35946 12.1285 7.26829L15.8409 10.9806C16.0684 11.2081 16.0684 11.578 15.8409 11.8055C15.7265 11.9186 15.5784 11.9758 15.429 11.9758Z" fill="#5D686F"/>
<path d="M17.9047 9.50137C17.7553 9.50137 17.606 9.4442 17.4917 9.33104L14.603 6.44237C14.1468 5.98854 13.4072 5.98854 12.9533 6.44237C12.4983 6.89854 12.4983 7.63704 12.9533 8.0932C13.1808 8.3207 13.1808 8.69054 12.9533 8.91804C12.7258 9.14554 12.356 9.14554 12.1285 8.91804C11.6875 8.47704 11.4448 7.89137 11.4448 7.2672C11.4448 6.6442 11.6875 6.05854 12.1285 5.61754C13.0373 4.7087 14.519 4.7087 15.4278 5.61754L18.3165 8.50504C18.544 8.73254 18.544 9.10237 18.3165 9.32987C18.2033 9.4442 18.054 9.50137 17.9047 9.50137Z" fill="#5D686F"/>
<path d="M17.268 24.7182C16.8748 24.7182 16.477 24.6738 16.0827 24.584L6.28617 22.3382C6.27684 22.337 6.2675 22.3358 6.25934 22.3335C5.8335 22.2425 5.43801 22.0255 5.11717 21.7047C4.20834 20.7958 4.20834 19.3142 5.11717 18.4053C5.42051 18.102 5.78917 17.8932 6.18701 17.7963C6.19867 17.7917 6.21034 17.7893 6.22201 17.7858L11.1687 16.6005C11.4837 16.52 11.7975 16.7207 11.8722 17.0322C11.9468 17.346 11.7532 17.6598 11.4405 17.7357L6.52767 18.9117C6.51134 18.9163 6.49734 18.921 6.481 18.9245C6.285 18.9677 6.09834 19.0738 5.94201 19.2302C5.487 19.6852 5.487 20.4248 5.94201 20.8798C6.0925 21.0303 6.27801 21.1377 6.46701 21.1843C6.47984 21.1867 6.4915 21.189 6.50434 21.1925L16.3428 23.4477C17.7218 23.7662 19.1417 23.3555 20.1427 22.3545L24.9167 17.5805C26.508 15.988 26.508 13.398 24.9167 11.8055L17.905 4.79266C17.4477 4.33533 16.7092 4.33766 16.2542 4.79266C15.7992 5.24883 15.7992 5.98733 16.2542 6.4435C16.4817 6.671 16.4817 7.04083 16.2542 7.26833C16.0267 7.49583 15.6568 7.49583 15.4293 7.26833C14.5193 6.35833 14.5193 4.87783 15.4293 3.96783C16.337 3.059 17.8198 3.05783 18.7298 3.96783L25.7415 10.9807C27.789 13.0282 27.789 16.3578 25.7415 18.4053L20.9675 23.1793C19.9677 24.178 18.6423 24.7182 17.268 24.7182Z" fill="#5D686F"/>
</svg>
