<svg width="162" height="31" viewBox="0 0 162 31" fill="none" xmlns="http://www.w3.org/2000/svg">
<path d="M68.1384 6.60877H66.1595V3.22119H79.251C80.6816 3.22119 81.2907 3.86166 81.2907 5.29674V8.593H77.6978V7.28032C77.6978 6.82312 77.4846 6.60877 77.028 6.60877H72.126V11.921H75.5361C79.1283 11.921 83.1475 13.3859 83.1475 18.27C83.1475 20.4686 82.417 22.1161 80.9555 23.2462C79.5242 24.3445 77.6978 24.8949 75.4754 24.8949H70.2084C68.7778 24.8949 68.1384 24.2843 68.1384 22.8194V6.60877ZM72.1266 20.9265C72.1266 21.3843 72.3404 21.5987 72.7964 21.5987H75.8106C77.7895 21.5987 79.0373 20.3158 79.0373 18.3924C79.0373 16.4691 77.8502 15.2179 75.8106 15.2179H72.1266V20.9265Z" fill="white"/>
<path d="M87.1667 22.9718C85.5527 21.415 84.7311 19.4606 84.7311 17.1111C84.7311 14.7603 85.5527 12.8072 87.1667 11.2801C88.8104 9.72267 90.8196 8.96045 93.2248 8.96045C95.63 8.96045 97.6392 9.72267 99.2836 11.2801C100.927 12.8065 101.749 14.7603 101.749 17.1111C101.749 19.4606 100.927 21.415 99.2836 22.9718C97.6696 24.4982 95.6603 25.2611 93.2551 25.2611C90.8506 25.2611 88.8104 24.4982 87.1667 22.9718ZM89.9677 20.6217C90.8506 21.5063 91.9466 21.9642 93.2551 21.9642C94.5339 21.9642 95.63 21.5063 96.5128 20.6217C97.3957 19.706 97.8523 18.5455 97.8523 17.1111C97.8523 15.7065 97.3957 14.546 96.5128 13.6303C95.6293 12.7152 94.5339 12.2567 93.2551 12.2567C91.977 12.2567 90.8803 12.7152 89.9677 13.6303C89.0849 14.546 88.6276 15.7065 88.6276 17.1111C88.6276 18.5455 89.0849 19.706 89.9677 20.6217Z" fill="white"/>
<path d="M105.433 22.3002C104.307 20.4384 103.819 18.2398 103.819 15.4622C103.819 12.7456 104.246 10.6389 105.068 9.11255C105.89 7.55508 107.321 6.3648 109.3 5.47953L112.314 4.1675C113.746 3.55682 114.08 3.28224 114.08 2.5796V2H117.764V3.52574C117.764 4.65514 117.552 5.35714 116.79 5.93803C116.395 6.21261 116.059 6.42567 115.755 6.5785C115.481 6.73069 114.963 6.9444 114.233 7.21962L110.914 8.56209C108.722 9.50888 107.596 11.0048 107.535 13.1108H107.596C108.844 11.5229 110.488 10.7296 112.588 10.7296C114.598 10.7296 116.211 11.3701 117.46 12.684C118.708 13.9961 119.317 15.7057 119.317 17.8428C119.317 20.1016 118.586 21.9026 117.124 23.2457C115.663 24.5894 113.775 25.2604 111.492 25.2604C108.661 25.261 106.56 24.162 105.433 22.3002ZM111.583 22.0256C113.746 22.0256 115.389 20.4073 115.389 17.9347C115.389 15.4014 113.775 13.8452 111.614 13.8452C109.391 13.8452 107.778 15.4927 107.778 17.9056C107.778 20.4384 109.391 22.0256 111.583 22.0256Z" fill="white"/>
<path d="M122.819 31.0001V13.2942C122.819 12.837 122.605 12.6233 122.148 12.6233H120.931V9.32569H124.4C125.71 9.32569 126.349 9.81463 126.349 10.8223V11.4323H126.411C126.502 11.3106 126.532 11.1577 127.112 10.5775C127.811 9.81463 129.182 9.02132 131.343 8.96045C133.444 8.96045 135.088 9.72267 136.335 11.2186C137.584 12.7152 138.223 14.6988 138.223 17.1111C138.223 19.5532 137.554 21.5374 136.214 23.0327C134.906 24.53 133.201 25.2611 131.13 25.2611C128.756 25.2611 127.234 23.9795 126.838 23.429L126.686 23.2166H126.623C126.656 23.5825 126.686 24.0397 126.686 24.5591V31.0001H122.819ZM127.567 20.5906C128.266 21.5374 129.211 21.9953 130.429 21.9953C132.652 21.9953 134.326 20.1328 134.326 17.172C134.326 14.2416 132.774 12.2878 130.489 12.2878C128.267 12.2878 126.562 13.9366 126.562 17.2024C126.562 18.5151 126.898 19.6451 127.567 20.5906Z" fill="white"/>
<path d="M141.632 13.2942C141.632 12.837 141.419 12.6232 140.963 12.6232H139.744V9.32568H143.459C144.829 9.32568 145.499 9.90593 145.499 11.0969V14.6988H148.268C152.013 14.6988 154.083 16.7439 154.083 19.7967C154.083 23.0023 151.679 24.8945 148.268 24.8945H143.306C142.119 24.8945 141.632 24.4373 141.632 23.2458V13.2942H141.632ZM145.5 21.6592C145.5 22.0555 145.682 22.2388 146.047 22.2388H147.722C149.274 22.2388 150.218 21.2622 150.218 19.7967C150.218 18.3007 149.305 17.385 147.722 17.385H145.5V21.6592H145.5ZM156.247 9.32633H160.113V20.9578C160.113 21.415 160.326 21.6294 160.782 21.6294H161.999V24.8952H158.316C156.855 24.8952 156.247 24.2845 156.247 22.8196V9.32633Z" fill="white"/>
<path fill-rule="evenodd" clip-rule="evenodd" d="M19.8428 13.4067C19.2338 14.5645 19.0168 16.1193 18.0168 16.879C16.0928 18.3199 13.7138 19.1924 11.3948 19.4479C11.0688 19.4833 9.56878 19.5574 9.01379 19.4479C8.45879 19.3395 7.54579 19.0133 6.73079 19.0133C5.28279 19.0133 0.400796 19.2466 0.141796 21.2559C-0.304204 24.7161 3.66279 24.6199 6.07879 24.6199C8.52979 24.6199 10.9918 24.4031 13.3858 23.7164C15.7208 23.0463 17.0618 22.4226 18.5398 21.1475C18.8328 20.8943 19.7788 19.7741 19.7788 19.7741L19.8428 13.4067Z" fill="url(#paint0_linear)"/>
<path fill-rule="evenodd" clip-rule="evenodd" d="M19.8428 13.0454C19.2348 14.2032 19.1238 14.5426 18.1238 15.3012C16.1988 16.7409 15.5418 17.1202 13.2148 17.2164C11.2778 17.2972 8.94578 17.1468 6.46378 17.3757C4.40377 17.567 0.598772 19.3882 0.165771 21.0447C1.34677 28.1139 17.6358 22.2544 19.7168 20.2231C19.9958 19.9499 19.7248 18.9658 19.7248 18.9658L19.8428 13.0454Z" fill="url(#paint1_linear)"/>
<path fill-rule="evenodd" clip-rule="evenodd" d="M0.160819 21.0248C-0.222182 23.4322 0.0368183 25.6649 1.39582 26.4025C3.10583 27.3304 3.39983 27.1733 5.34283 27.3071C10.1158 27.3071 12.5829 26.9886 16.9229 24.5204C18.3749 23.6755 19.3369 22.615 20.2499 21.2271L19.7779 19.7729C16.5459 23.294 1.00482 27.9452 0.160819 21.0248Z" fill="url(#paint2_linear)"/>
<path fill-rule="evenodd" clip-rule="evenodd" d="M30.7538 19.2721C30.7538 19.2721 30.1388 21.0515 28.6938 21.4983C28.0358 21.7006 25.4268 22.9879 25.5358 24.0197C25.5598 24.2519 27.2778 24.1723 27.4618 25.1477L27.6358 26.0678L24.3308 26.0977C22.5638 24.138 23.6918 22.5212 24.6788 20.3105L27.0878 18.7977L27.9168 17.8765L30.7538 19.2721Z" fill="url(#paint3_linear)"/>
<path fill-rule="evenodd" clip-rule="evenodd" d="M42.0088 23.0249C42.1308 25.4194 42.2688 27.1802 43.1048 27.2853C43.7998 27.3715 44.6018 27.2532 46.3298 27.2842L46.4108 26.4978C46.2098 25.2668 44.8688 26.3496 44.4178 24.8653C44.3038 23.4696 44.4098 22.7717 44.8058 21.4809L44.9668 20.5906L44.6298 20.146L42.0088 23.0249Z" fill="url(#paint4_linear)"/>
<path fill-rule="evenodd" clip-rule="evenodd" d="M36.4838 16.5894C36.5238 19.052 36.0068 26.5815 37.2738 28.2668L37.4868 28.5045L40.9128 28.52C40.9128 26.3858 38.8988 27.5425 38.9458 25.9678C41.0918 23.5626 45.3148 20.8268 46.5858 18.5776C47.5758 16.8271 44.0438 17.6587 44.0438 17.6587L40.8328 17.599L36.4838 16.5894Z" fill="url(#paint5_linear)"/>
<path fill-rule="evenodd" clip-rule="evenodd" d="M43.1828 9.5013C43.1398 9.16955 43.0978 8.8378 43.0538 8.50826C41.8558 7.04853 41.4748 7.26085 40.2618 6.14505C39.9158 5.82767 39.6278 5.44062 39.3108 5.08675L38.6518 4.16337L38.7138 3.32955L37.8978 2.50349C39.2778 0.597001 42.1378 0.560507 45.3948 0.755137C47.1718 -1.09274 47.3738 0.877885 47.7198 2.12307C48.7508 3.40918 49.7668 4.96621 49.7618 6.72451L49.6268 7.51188L47.9468 9.36086L45.9888 9.97461L44.3048 9.95028L43.1828 9.5013Z" fill="url(#paint6_linear)"/>
<path fill-rule="evenodd" clip-rule="evenodd" d="M48.1808 8.92597C47.4828 7.91195 47.1648 6.35388 45.9188 5.28346C43.5448 3.50091 40.8018 2.74896 37.9828 2.49463C37.9868 3.16032 38.1488 3.61038 38.5638 4.18098C39.2188 4.99816 40.1388 6.24219 40.9728 6.80615C41.1678 6.93774 42.1828 7.84671 42.1828 7.84671L43.1038 8.82755L43.1738 9.68786L46.8828 10.2905L48.1808 8.92597Z" fill="url(#paint7_linear)"/>
<path fill-rule="evenodd" clip-rule="evenodd" d="M48.1808 8.92668C47.4828 7.91253 47.0978 6.58871 45.8518 5.51926C43.5168 3.76302 42.3648 3.72432 39.7118 2.89043C36.1078 0.754853 38.3678 5.37438 40.0248 7.24675C40.8758 8.20671 41.4688 8.502 43.0358 9.06161L43.1058 9.92314L46.8148 10.5259L48.1808 8.92668Z" fill="url(#paint8_linear)"/>
<path fill-rule="evenodd" clip-rule="evenodd" d="M29.9958 4.97363C30.9228 5.03334 31.8508 5.09306 32.7778 5.15277C32.7778 5.15277 32.9658 5.03335 34.3828 5.80518C38.0068 7.77567 43.6568 12.3536 48.0558 8.0897C48.8828 7.28691 49.3888 6.47417 49.5548 5.30095C49.5548 5.30095 50.6258 9.18774 49.6628 12.6599C48.6988 16.1309 47.4678 18.6675 44.2048 21.3391C43.5078 21.9097 42.7778 22.4272 42.0638 22.9712C40.9938 22.7147 39.9228 22.457 38.8528 22.2005C37.9348 21.9926 37.0158 21.7847 36.0968 21.5779C33.8508 20.6988 31.7458 19.9911 29.5678 18.9064C29.0418 18.61 28.5158 18.3148 27.9888 18.0173C28.3368 15.3071 28.6848 12.5968 29.0318 9.88658C29.0058 8.90687 28.9788 7.92826 28.9518 6.94855C29.3008 6.28951 29.6478 5.63157 29.9958 4.97363Z" fill="url(#paint9_linear)"/>
<path fill-rule="evenodd" clip-rule="evenodd" d="M31.9009 4.91434L29.8139 4.64783C26.4019 4.12809 21.8729 7.02095 19.8868 10.0189C17.2918 13.9357 19.0558 16.0114 19.2448 20.9987C19.3358 23.426 18.8378 25.5735 19.6858 27.5574L20.0868 28.0605L23.3649 27.9876L23.3249 27.1858L22.8429 26.8441L22.0939 26.414L21.5849 26.1021C21.5849 26.1021 21.3179 26.0579 21.3179 25.8489C21.3179 25.0803 23.1179 23.4371 23.6859 23.1352C25.7379 22.0371 27.1729 21.086 28.7159 18.5946C28.7159 18.5946 29.4379 16.7844 29.7989 15.924C30.1599 15.0637 30.4009 12.5258 30.1329 11.1612C29.6839 8.8688 28.9969 7.04307 30.8819 5.52254L31.9009 4.91434Z" fill="url(#paint10_linear)"/>
<path fill-rule="evenodd" clip-rule="evenodd" d="M36.4589 16.7256L36.5119 26.7853C36.5119 26.7853 36.6869 28.3069 37.3419 28.4396C37.9968 28.5712 38.9208 28.5104 38.9208 28.5104C38.6528 28.0636 38.3848 27.6169 38.1178 27.1701C37.4089 25.34 38.5338 20.7541 41.0088 18.4319L41.5968 16.918L40.9018 15.7613L39.7778 15.6729L38.3328 17.0231L37.5568 16.9932L36.4589 16.7256Z" fill="url(#paint11_linear)"/>
<path fill-rule="evenodd" clip-rule="evenodd" d="M36.4849 17.1555L36.5259 17.0659V21.8135L33.7139 20.6667L36.4849 17.1555Z" fill="url(#paint12_linear)"/>
<path fill-rule="evenodd" clip-rule="evenodd" d="M36.3239 14.6025L36.3918 26.7863C36.3918 26.7863 36.6068 28.476 37.2968 28.4948C37.9868 28.5158 38.7998 28.5125 38.7998 28.5125C38.5328 28.0658 38.2648 27.619 37.9978 27.1723C37.5428 26.0388 37.7978 21.8843 40.4588 19.2204C41.2748 18.6266 42.2648 15.9417 42.7328 15.1411L40.8198 15.287L39.6958 15.1975L38.3578 14.9011L37.4208 14.8713L36.3239 14.6025Z" fill="url(#paint13_linear)"/>
<path fill-rule="evenodd" clip-rule="evenodd" d="M32.2229 5.11475C31.8969 5.1623 31.5709 5.20874 31.2439 5.25629C30.9018 5.39119 30.5598 5.5261 30.2168 5.6599C30.0988 5.79701 29.9798 5.93413 29.8618 6.07125C29.7108 6.39414 29.5598 6.71703 29.4078 7.03992C29.3638 7.36281 29.3188 7.6857 29.2758 8.0097C29.2658 8.46528 29.2558 8.92087 29.2458 9.37645C29.3318 9.64295 29.4178 9.91055 29.5038 10.177C29.5038 10.177 31.6739 13.908 36.3649 15.0304C41.0559 16.1527 45.1829 15.9846 46.4799 13.908C47.7759 11.8335 47.8859 8.42989 47.8859 8.42989C47.8859 8.42989 47.3149 9.40299 44.7749 10.3551C41.5339 11.5714 37.7949 8.76164 35.2019 6.48261C34.0509 5.65548 33.3549 5.16893 32.2229 5.11475Z" fill="url(#paint14_linear)"/>
<path fill-rule="evenodd" clip-rule="evenodd" d="M32.3478 4.90576C32.0208 4.9522 31.7478 5.18995 31.4218 5.2364C31.0798 5.3702 30.7378 5.50621 30.3948 5.64001C30.2768 5.77823 30.1588 5.91535 30.0398 6.05247C29.8888 6.37425 29.7368 6.69825 29.5858 7.02004C29.5418 7.34293 29.4978 7.66582 29.4538 7.98871C29.4438 8.4454 29.4338 8.90098 29.4238 9.35657C29.5088 9.62306 29.5958 9.88956 29.6808 10.1572C29.6808 10.1572 31.8508 13.8881 36.5428 15.0105C41.2339 16.1328 45.2109 15.7823 46.5069 13.7078C47.8029 11.6312 48.0629 8.41001 48.0629 8.41001C48.0629 8.41001 47.5669 8.78488 45.0269 9.73696C41.7859 10.9544 37.9718 8.74174 35.3788 6.46382C34.2278 5.63447 33.4808 4.95884 32.3478 4.90576Z" fill="url(#paint15_linear)"/>
<path fill-rule="evenodd" clip-rule="evenodd" d="M32.4258 4.91125C30.2838 4.70557 28.0318 3.95804 26.1428 5.63334C25.0878 7.52758 26.1328 10.3595 26.3838 12.4882C26.3838 12.4882 26.9718 15.277 25.6078 17.0275C24.2438 18.778 22.5048 21.8345 22.5048 21.8345C22.1648 22.4493 21.8258 23.0608 21.4868 23.6745C21.1878 24.4364 21.0098 25.1541 21.1118 26.0476C21.2548 26.6801 21.3968 27.3137 21.5398 27.9473C22.3898 28.0579 22.9328 28.0446 23.7878 28.0071C24.7718 27.1335 22.4118 26.0343 21.9138 25.8695C22.1728 24.6532 22.3778 24.0007 23.7328 23.3771C28.7748 20.2001 31.3678 16.7002 30.2618 10.0245C30.1368 9.1332 29.8238 8.49626 29.8868 7.35397C30.1388 5.89209 31.3848 5.61564 32.4258 4.91125Z" fill="url(#paint16_linear)"/>
<path fill-rule="evenodd" clip-rule="evenodd" d="M32.3188 4.94098C30.1769 4.7364 27.9249 3.98996 26.0359 5.66529C24.9809 7.55958 26.0269 10.3905 26.2759 12.5192C26.2759 12.5192 26.8649 15.3081 25.5009 17.0587C24.1359 18.8092 22.3969 21.8657 22.3969 21.8657C22.0579 22.4805 21.7199 23.0932 21.3799 23.7058C21.0809 24.4677 20.9029 25.1854 21.0049 26.0789C21.1479 26.7126 21.2899 27.3462 21.4329 27.9787C22.2819 28.0904 22.8259 28.0761 23.6809 28.0385C24.6649 27.166 22.3059 26.0668 21.8079 25.902C22.0659 24.6845 22.2719 24.032 23.6279 23.4083C28.6689 20.2324 31.2618 16.7324 30.1569 10.0565C30.0319 9.16525 29.7199 8.52718 29.7819 7.38486C30.0329 5.92295 31.2778 5.6465 32.3188 4.94098Z" fill="url(#paint17_linear)"/>
<path fill-rule="evenodd" clip-rule="evenodd" d="M38.3708 3.50342L40.7618 4.53644C40.1908 5.42347 39.0868 7.25282 37.8618 6.49188L38.3708 3.50342Z" fill="#F17C0C"/>
<path fill-rule="evenodd" clip-rule="evenodd" d="M0.745854 20.6445C3.09985 17.58 9.18783 18.5797 12.2668 18.3132C14.3438 18.134 16.6758 17.6142 18.3308 16.1201C16.8388 17.82 14.3278 18.3729 12.2898 18.593C9.45283 18.9005 3.24185 18.0633 1.09985 20.9044C1.03585 21.0128 0.903854 21.0427 0.806854 20.9719C0.709854 20.9 0.681854 20.754 0.745854 20.6445Z" fill="#9F3D14"/>
<path fill-rule="evenodd" clip-rule="evenodd" d="M2.04282 21.8367C2.98681 19.9135 12.1348 20.4399 13.7588 20.1048C15.8808 19.6669 16.8408 18.979 18.5348 17.6763C16.8708 19.1825 16.0308 19.8483 13.8068 20.3636C12.4848 20.67 3.19081 20.566 2.44181 21.9993C2.40082 22.1209 2.27882 22.1851 2.16882 22.1397C2.05882 22.0944 2.00282 21.9583 2.04282 21.8367Z" fill="#9F3D14"/>
<path fill-rule="evenodd" clip-rule="evenodd" d="M3.28381 23.3238C6.37981 22.4768 5.91081 22.3397 9.40982 22.259C13.4488 22.1661 15.3918 21.4717 18.8928 19.4868C15.5988 21.758 13.3298 22.4657 9.39582 22.6283C5.94581 22.7731 6.41081 22.9058 3.35581 23.7882C3.24081 23.8114 3.12981 23.7252 3.10981 23.5969C3.09081 23.4687 3.16781 23.347 3.28381 23.3238Z" fill="#9F3D14"/>
<path fill-rule="evenodd" clip-rule="evenodd" d="M12.6398 17.9293C11.3378 19.8139 12.1608 21.1343 13.5198 22.4736C11.7108 21.2903 11.0158 19.6834 12.3248 17.613C12.4038 17.5168 12.5388 17.508 12.6248 17.5964C12.7118 17.686 12.7188 17.8342 12.6398 17.9293Z" fill="#9F3D14"/>
<path fill-rule="evenodd" clip-rule="evenodd" d="M17.0468 16.7255C16.6028 18.5382 17.1138 19.0116 18.1729 20.3687C16.7528 19.3058 16.2787 18.4752 16.6398 16.5916C16.6728 16.4677 16.7908 16.3959 16.9038 16.4324C17.0158 16.47 17.0808 16.6005 17.0468 16.7255Z" fill="#9F3D14"/>
<path fill-rule="evenodd" clip-rule="evenodd" d="M9.7268 17.9576C8.52783 19.9723 9.31281 22.0478 10.8008 23.4819C8.80882 22.3607 8.28183 19.6749 9.41281 17.6414C9.49181 17.5452 9.62581 17.5375 9.7128 17.6248C9.7998 17.7122 9.8058 17.8614 9.7268 17.9576Z" fill="#9F3D14"/>
<path fill-rule="evenodd" clip-rule="evenodd" d="M6.92087 18.0871C5.63087 20.4854 6.45287 21.9803 7.77087 23.9507C5.99887 22.1351 5.33987 20.3096 6.57087 17.8217C6.63687 17.7134 6.76887 17.6868 6.86587 17.7598C6.96287 17.8328 6.98687 17.9787 6.92087 18.0871Z" fill="#9F3D14"/>
<path fill-rule="evenodd" clip-rule="evenodd" d="M3.97781 18.6509C3.01781 21.5171 3.16181 22.3154 5.51282 24.1875C2.80781 22.6394 2.71981 21.3899 3.57481 18.5215C3.61181 18.411 3.73181 18.3523 3.84381 18.3877C3.95381 18.4231 4.01381 18.5414 3.97781 18.6509Z" fill="#9F3D14"/>
<path fill-rule="evenodd" clip-rule="evenodd" d="M14.9698 17.5344C14.4189 19.6126 14.8828 19.7254 15.8408 21.6421C14.4439 19.732 14.0769 19.7199 14.5649 17.4647C14.5949 17.3541 14.7099 17.28 14.8208 17.2988C14.9328 17.3176 14.9998 17.4227 14.9698 17.5344Z" fill="#9F3D14"/>
<defs>
<linearGradient id="paint0_linear" x1="0.106596" y1="19.0142" x2="19.8429" y2="19.0142" gradientUnits="userSpaceOnUse">
<stop stop-color="#D55C2D"/>
<stop offset="0.44" stop-color="#F9A350"/>
<stop offset="1" stop-color="#D15C32"/>
</linearGradient>
<linearGradient id="paint1_linear" x1="0.164671" y1="18.7399" x2="19.8429" y2="18.7399" gradientUnits="userSpaceOnUse">
<stop stop-color="#CA621D"/>
<stop offset="0.45" stop-color="#F0861E"/>
<stop offset="1" stop-color="#962215"/>
</linearGradient>
<linearGradient id="paint2_linear" x1="0.000618204" y1="23.5411" x2="20.2502" y2="23.5411" gradientUnits="userSpaceOnUse">
<stop stop-color="#AC4A18"/>
<stop offset="1" stop-color="#BE281D"/>
</linearGradient>
<linearGradient id="paint3_linear" x1="23.4049" y1="21.9863" x2="30.7535" y2="21.9863" gradientUnits="userSpaceOnUse">
<stop stop-color="#89090C"/>
<stop offset="1" stop-color="#982318"/>
</linearGradient>
<linearGradient id="paint4_linear" x1="42.0084" y1="23.731" x2="46.4098" y2="23.731" gradientUnits="userSpaceOnUse">
<stop stop-color="#89090C"/>
<stop offset="1" stop-color="#982318"/>
</linearGradient>
<linearGradient id="paint5_linear" x1="36.9723" y1="23.2236" x2="46.0967" y2="20.3344" gradientUnits="userSpaceOnUse">
<stop stop-color="#E46D20"/>
<stop offset="1" stop-color="#FFD118"/>
</linearGradient>
<linearGradient id="paint6_linear" x1="38.1388" y1="3.42588" x2="49.4757" y2="5.38151" gradientUnits="userSpaceOnUse">
<stop stop-color="#F78E1E"/>
<stop offset="0.43" stop-color="#EC7A1F"/>
<stop offset="1" stop-color="#9F3F14"/>
</linearGradient>
<linearGradient id="paint7_linear" x1="37.4874" y1="5.36319" x2="48.2443" y2="7.21879" gradientUnits="userSpaceOnUse">
<stop stop-color="#F78E1E"/>
<stop offset="0.53" stop-color="#F79758"/>
<stop offset="1" stop-color="#9F3D14"/>
</linearGradient>
<linearGradient id="paint8_linear" x1="37.4201" y1="5.42714" x2="48.1973" y2="7.28605" gradientUnits="userSpaceOnUse">
<stop stop-color="#F78E1E"/>
<stop offset="0.42" stop-color="#F47721"/>
<stop offset="1" stop-color="#8E300E"/>
</linearGradient>
<linearGradient id="paint9_linear" x1="27.9894" y1="13.9715" x2="50.0651" y2="13.9715" gradientUnits="userSpaceOnUse">
<stop stop-color="#A13C15"/>
<stop offset="0.5" stop-color="#EF821E"/>
<stop offset="1" stop-color="#FFD615"/>
</linearGradient>
<linearGradient id="paint10_linear" x1="18.9469" y1="22.2154" x2="31.7748" y2="9.47981" gradientUnits="userSpaceOnUse">
<stop stop-color="#EF4435"/>
<stop offset="0.44" stop-color="#F78D1E"/>
<stop offset="1" stop-color="#EC7E1E"/>
</linearGradient>
<linearGradient id="paint11_linear" x1="36.0447" y1="26.767" x2="40.8731" y2="16.8096" gradientUnits="userSpaceOnUse">
<stop stop-color="#DB771E"/>
<stop offset="0.5" stop-color="#F2CDAB"/>
<stop offset="1" stop-color="#F3A21C"/>
</linearGradient>
<linearGradient id="paint12_linear" x1="35.1311" y1="21.1957" x2="37.4483" y2="18.8113" gradientUnits="userSpaceOnUse">
<stop stop-color="#C35F1C"/>
<stop offset="0.484" stop-color="#C05C1C"/>
<stop offset="0.8515" stop-color="#B8521A"/>
<stop offset="1" stop-color="#B34C19"/>
</linearGradient>
<linearGradient id="paint13_linear" x1="36.3235" y1="21.5565" x2="42.7326" y2="21.5565" gradientUnits="userSpaceOnUse">
<stop stop-color="#D46D1E"/>
<stop offset="1" stop-color="#F39E1C"/>
</linearGradient>
<linearGradient id="paint14_linear" x1="29.3898" y1="9.71228" x2="47.1192" y2="11.1496" gradientUnits="userSpaceOnUse">
<stop stop-color="#7E3007"/>
<stop offset="0.5" stop-color="#FFEBC1"/>
<stop offset="1" stop-color="#FFCB16"/>
</linearGradient>
<linearGradient id="paint15_linear" x1="29.5909" y1="9.59022" x2="47.2926" y2="11.0253" gradientUnits="userSpaceOnUse">
<stop stop-color="#A34515"/>
<stop offset="0.47" stop-color="#EC7A1F"/>
<stop offset="1" stop-color="#F7B619"/>
</linearGradient>
<linearGradient id="paint16_linear" x1="23.7555" y1="26.9969" x2="30.6177" y2="5.9957" gradientUnits="userSpaceOnUse">
<stop stop-color="#F05123"/>
<stop offset="0.63" stop-color="#F6D41B"/>
<stop offset="1" stop-color="#F2841F"/>
</linearGradient>
<linearGradient id="paint17_linear" x1="23.6492" y1="27.0287" x2="30.5119" y2="6.02612" gradientUnits="userSpaceOnUse">
<stop stop-color="#F05123"/>
<stop offset="0.63" stop-color="#F6D41B"/>
<stop offset="1" stop-color="#F2841F"/>
</linearGradient>
</defs>
</svg>
